<?xml version="1.0" encoding="UTF-8"?>
<!-- Generator: visioncortex VTracer -->
<svg id="svg" version="1.1" xmlns="http://www.w3.org/2000/svg" viewBox="0 0 500 500" style="display: block;"><path d="M0 0 C0.495 0.99 0.495 0.99 1 2 C3.40742704 2.94021404 5.80467612 3.79590117 8.25 4.625 C26.23232016 11.07293188 42.18195704 23.23656597 53 39 C53.66 39.66 54.32 40.32 55 41 C55.309375 42.8871875 55.309375 42.8871875 55.625 44.8125 C56.26218368 47.08209946 56.26218368 47.08209946 58 49 C62.60897188 51.01768311 67.27367101 52.28096579 72.14355469 53.49902344 C77.08545034 54.83263336 80.96127471 56.93688153 85 60 C85.81855469 60.58136719 86.63710938 61.16273437 87.48046875 61.76171875 C97.30766637 68.7527843 104.91370362 75.15520376 111.37109375 85.4609375 C112.8990297 88.04125761 112.8990297 88.04125761 115 90 C119.69084347 100.56714466 123.37902467 111.37274549 122.86328125 123.08203125 C122.26740021 130.46520142 122.26740021 130.46520142 124.3046875 137.37109375 C126.04641606 139.27875413 126.04641606 139.27875413 127.9921875 141.03125 C139.60198509 152.41517604 143.1295919 171.07110299 143.3125 186.6875 C143.21549047 209.3191135 135.39612534 230.26617853 120 247 C112.55960265 254.22019868 112.55960265 254.22019868 109 256 C108.31396863 258.93885054 107.72803844 261.84669898 107.1875 264.8125 C102.66392114 287.5339232 89.74993069 305.50653065 70.5625 318.375 C58.41910193 326.19988272 45.70704489 331.6272004 32 336 C30.5459375 336.47953125 30.5459375 336.47953125 29.0625 336.96875 C9.90906787 342.53660818 -12.87577484 343.14439329 -31.23046875 334.5703125 C-48.38961725 324.84114791 -57.85732596 311.42802211 -64 293 C-64.0922394 291.52979105 -64.1290925 290.05575366 -64.13142776 288.58265591 C-64.13526891 287.6736835 -64.13911005 286.7647111 -64.1430676 285.82819408 C-64.14220112 284.8282163 -64.14133463 283.82823851 -64.14044189 282.79795837 C-64.14341302 281.73664359 -64.14638414 280.67532881 -64.1494453 279.58185297 C-64.15815171 276.00760439 -64.1596422 272.43338922 -64.16113281 268.85913086 C-64.1657597 266.30351693 -64.17078418 263.74790369 -64.17617798 261.19229126 C-64.1893185 254.2354075 -64.19578709 247.27853479 -64.20018864 240.32164073 C-64.20295135 235.97617581 -64.20718885 231.63071312 -64.21169281 227.28524971 C-64.22388777 215.25056949 -64.23418547 203.21589106 -64.2375679 191.1812048 C-64.23778747 190.41077924 -64.23800703 189.64035369 -64.23823325 188.84658191 C-64.23845153 188.07431938 -64.23866981 187.30205685 -64.2388947 186.50639242 C-64.23933817 184.94151747 -64.23978473 183.37664252 -64.24023438 181.81176758 C-64.2404558 181.03553673 -64.24067723 180.25930588 -64.24090537 179.45955289 C-64.24485021 166.89231173 -64.26229361 154.32512868 -64.2855939 141.75790995 C-64.30933083 128.85076273 -64.32177088 115.94364463 -64.32293582 103.03647524 C-64.32385146 95.79153154 -64.32957532 88.54666347 -64.34775543 81.30174065 C-64.36480467 74.48344143 -64.36639148 67.66528773 -64.35761642 60.84697342 C-64.35684599 58.34686588 -64.36118954 55.84675064 -64.37107468 53.34666252 C-64.38379715 49.92791378 -64.37791514 46.50967263 -64.36749268 43.09092712 C-64.37554908 42.10656439 -64.38360548 41.12220166 -64.39190602 40.10800976 C-64.3106837 28.67959104 -60.96601703 19.50243523 -53.21875 11.05859375 C-38.56196226 -2.84733396 -18.72727259 -1.52120546 0 0 Z M-32 141 C-34.55147861 144.98030663 -33.98948084 148.19287288 -33.0625 152.625 C-28.23682322 169.61977476 -15.99831278 183.19702296 -1 192 C10.11645454 198.08207488 22.33792766 201.96636144 35 203 C40.23939198 220.65176108 38.30472387 236.16226944 32.92578125 253.453125 C31.17435868 258.70441735 31.17435868 258.70441735 31.63671875 264.03515625 C33.09238685 266.3241808 34.57179707 267.78589853 37 269 C41.2037561 269.47589692 43.24048175 269.56522288 46.6875 267 C57.72196619 252.68501683 58.90548626 232.92481804 56.68798828 215.55615234 C56.0013198 211.31613238 55.08777955 207.15687187 54 203 C54.8971875 202.8040625 55.794375 202.608125 56.71875 202.40625 C71.03469876 198.97515484 86.30498572 193.45178486 95.125 181 C96.30603872 176.9507244 95.75446148 174.80133322 94 171 C90.44379071 168.7279774 87.14091947 168.69384179 83 169 C80.57864554 170.27770002 80.57864554 170.27770002 78.375 172.125 C63.39814325 183.2173047 48.317756 186.55489236 30 185 C17.1641796 182.96114341 1.50953493 175.84077334 -6.41796875 165.07421875 C-6.85753906 164.43097656 -7.29710937 163.78773438 -7.75 163.125 C-8.86375 161.578125 -8.86375 161.578125 -10 160 C-10.99 160 -11.98 160 -13 160 C-12.773125 159.484375 -12.54625 158.96875 -12.3125 158.4375 C-11.84836944 154.81728166 -13.48366116 152.18564168 -15 149 C-15.50265186 147.75106401 -16.00273742 146.50109149 -16.5 145.25 C-18.3051074 141.33893396 -19.29386646 139.64556404 -23.3125 138.125 C-27.05488764 137.95093546 -28.93051313 138.8854646 -32 141 Z " transform="translate(322,66)" style="fill: #0F0F0F;"/><path d="M0 0 C0.94294922 -0.020625 1.88589844 -0.04125 2.85742188 -0.0625 C14.96302907 -0.12906004 24.80315054 3.77622887 34.0625 11.5625 C42.26897103 21.36467373 45.7399966 30.13905579 45.81982422 42.92260742 C45.83748463 43.97119997 45.85514503 45.01979252 45.87334061 46.1001606 C45.92788652 49.62273036 45.96052888 53.14512374 45.9921875 56.66796875 C46.02490906 59.22276109 46.05828454 61.77754512 46.09225464 64.33232117 C46.50939818 97.71462716 46.46348693 131.10315651 46.44107127 164.48740852 C46.43672175 171.70595249 46.43983635 178.924479 46.4446975 186.14302188 C46.44929941 193.27677216 46.44984657 200.41051511 46.44725883 207.5442664 C46.44573981 211.73252628 46.44537643 215.92077456 46.44879532 220.10903358 C46.46025308 236.72109663 46.38655008 253.33318147 46.0400846 269.94209516 C46.00836824 271.53733133 45.98109806 273.13266349 45.95875382 274.72805846 C45.8280396 283.60925041 45.23775296 291.76872745 42.3125 300.25 C41.95929688 301.343125 41.60609375 302.43625 41.2421875 303.5625 C35.2000363 318.95879638 23.61776771 329.35002695 8.76660156 336.01513672 C3.93820821 338.08322948 -0.47057976 339.67750953 -5.6875 340.25 C-6.88246094 340.39308594 -8.07742187 340.53617187 -9.30859375 340.68359375 C-32.06999425 342.9496684 -55.53428191 336.68161153 -75.6875 326.25 C-76.63882813 325.77820313 -77.59015625 325.30640625 -78.5703125 324.8203125 C-85.28651626 321.35931613 -90.95726246 317.15098365 -96.6875 312.25 C-97.44933594 311.63382812 -98.21117187 311.01765625 -98.99609375 310.3828125 C-113.94331919 297.89656872 -123.58156118 279.50184174 -126.4375 260.3125 C-127.18364808 256.68740888 -128.39973392 255.3007704 -131.375 253.125 C-132.44234375 252.42310547 -132.44234375 252.42310547 -133.53125 251.70703125 C-139.4964655 247.67618817 -143.66180967 242.11600591 -147.6875 236.25 C-148.3475 235.59 -149.0075 234.93 -149.6875 234.25 C-150.1825 233.239375 -150.6775 232.22875 -151.1875 231.1875 C-152.36530112 228.16393318 -152.36530112 228.16393318 -154.6875 227.25 C-154.89923194 225.69729909 -155.10254575 224.14322879 -155.27734375 222.5859375 C-155.7914245 219.65812521 -156.69841819 216.949194 -157.625 214.125 C-164.20796298 193.2749609 -163.27925761 170.1012373 -153.2734375 150.4765625 C-151.33183734 147.10212373 -149.40604815 144.02359821 -146.75 141.1640625 C-142.44581943 136.49541503 -141.28947754 133.60629218 -141.4375 127.1875 C-141.49679688 125.8984375 -141.55609375 124.609375 -141.6171875 123.28125 C-142.22503783 106.61804619 -134.99754599 90.9361894 -124.6875 78.25 C-124.11 77.52039063 -123.5325 76.79078125 -122.9375 76.0390625 C-118.74981752 70.97894616 -114.04052179 67.03314521 -108.6875 63.25 C-107.841875 62.65058594 -106.99625 62.05117187 -106.125 61.43359375 C-97.19789141 55.42596108 -87.54092319 50.88843666 -76.6875 50.25 C-76.42710938 49.37601563 -76.16671875 48.50203125 -75.8984375 47.6015625 C-68.9865532 28.47125047 -50.28085506 15.43349037 -32.7421875 7.046875 C-22.04642566 2.1495295 -11.6582437 0.06246882 0 0 Z M0.3125 141.25 C-1.71810267 144.43774758 -3.14143469 147.88608344 -4.54296875 151.38671875 C-7.16075201 157.7539907 -11.32215631 167.06732815 -17.6875 170.25 C-17.6875 170.91 -17.6875 171.57 -17.6875 172.25 C-18.19152344 172.49878906 -18.69554687 172.74757812 -19.21484375 173.00390625 C-21.21704816 174.01291606 -23.20634152 175.04751879 -25.19140625 176.08984375 C-32.83487769 180.06678883 -40.13417594 183.69366122 -48.6875 185.25 C-49.95207031 185.49556641 -49.95207031 185.49556641 -51.2421875 185.74609375 C-66.54606887 187.94858113 -83.37658552 182.36133562 -95.6875 173.5 C-96.71875 172.72140625 -97.75 171.9428125 -98.8125 171.140625 C-101.62221786 169.29293011 -103.35995286 168.47674938 -106.6875 168.25 C-110.17384601 169.87155629 -111.53052194 171.01453292 -113.6875 174.25 C-113.59748864 179.02060202 -112.67635181 182.19230602 -109.375 185.71875 C-99.28568826 194.87386621 -86.44412988 201.25 -72.6875 201.25 C-73.13867191 205.38574248 -73.67552948 209.3368038 -74.70703125 213.3671875 C-75.88102829 218.57465705 -76.03220634 223.61458625 -76 228.9375 C-75.99508545 229.90139648 -75.9901709 230.86529297 -75.98510742 231.85839844 C-75.78099225 244.37327553 -73.89418101 256.97931654 -65.5 266.8125 C-62.18203331 269.44399082 -59.89799529 269.66279366 -55.6875 269.25 C-52.65821892 267.97675163 -52.65821892 267.97675163 -50.6875 265.25 C-49.27345925 259.2126608 -51.30205834 254.30262158 -53.6640625 248.81640625 C-59.18452399 234.9731116 -57.56444509 217.55766444 -54.6875 203.25 C-54.0790625 203.23582031 -53.470625 203.22164063 -52.84375 203.20703125 C-31.96066031 202.07074549 -12.58689438 191.91972751 1.625 176.875 C5.69544613 172.09556223 8.61428633 166.89859684 11.3125 161.25 C11.82490234 160.198125 11.82490234 160.198125 12.34765625 159.125 C14.57577267 153.98478723 15.19666151 148.80056948 14.3125 143.25 C12.38933035 140.32963127 11.09650792 139.55154151 7.875 138.3125 C4.31831569 138.2257516 3.03588932 138.94559365 0.3125 141.25 Z " transform="translate(196.6875,65.75)" style="fill: #0F1010;"/><path d="M0 0 C0.99 0.495 0.99 0.495 2 1 C3.1138958 42.80156078 3.15618886 84.59168906 3.12856841 126.40476298 C3.12423196 133.74512078 3.12733113 141.08546137 3.1321975 148.42581809 C3.13679064 155.65617916 3.13735047 162.88653301 3.13475883 170.11689508 C3.13323433 174.37220116 3.1328931 178.6274958 3.13629532 182.88280106 C3.15138115 204.60794659 2.79780942 226.28866753 2 248 C1.34 248.33 0.68 248.66 0 249 C0 166.83 0 84.66 0 0 Z " transform="translate(240,103)" style="fill: #000000;"/><path d="M0 0 C0.85980469 0.13277344 1.71960938 0.26554688 2.60546875 0.40234375 C10.73318225 1.61662592 18.79538412 2.48210066 27 3 C24.51522082 5.48477918 22.98877257 5.28237019 19.58984375 5.328125 C18.87957031 5.32296875 18.16929687 5.3178125 17.4375 5.3125 C16.71820313 5.31121094 15.99890625 5.30992187 15.2578125 5.30859375 C9.66562255 5.20783357 5.17254869 4.21680658 0 2 C0 1.34 0 0.68 0 0 Z " transform="translate(343,247)" style="fill: #080807;"/><path d="M0 0 C2.18310547 -0.35644531 2.18310547 -0.35644531 4.8671875 -0.328125 C6.31931641 -0.32039063 6.31931641 -0.32039063 7.80078125 -0.3125 C8.81527344 -0.291875 9.82976562 -0.27125 10.875 -0.25 C11.88175781 -0.24484375 12.88851562 -0.2396875 13.92578125 -0.234375 C22.04367117 -0.14812916 22.04367117 -0.14812916 26 1 C26 1.66 26 2.32 26 3 C16.76 3 7.52 3 -2 3 C-1.34 2.01 -0.68 1.02 0 0 Z " transform="translate(186,66)" style="fill: #090909;"/><path d="M0 0 C0.33 0 0.66 0 1 0 C1.53206931 4.16402072 0.44670189 6.34008498 -2.05273438 9.65625 C-2.46845703 10.1821875 -2.88417969 10.708125 -3.3125 11.25 C-3.71662109 11.79140625 -4.12074219 12.3328125 -4.53710938 12.890625 C-6.61867826 15.59835688 -7.69233867 16.89744622 -11 18 C-11 18.66 -11 19.32 -11 20 C-11.66 20 -12.32 20 -13 20 C-12.60543081 16.44887729 -11.08393405 15.05452678 -8.5390625 12.703125 C-5.69630367 9.55733097 -3.64833467 5.84302032 -1.453125 2.23046875 C-0.97359375 1.49441406 -0.4940625 0.75835937 0 0 Z " transform="translate(190,218)" style="fill: #090808;"/><path d="M0 0 C4.30696841 1.46738334 7.46836996 3.67033793 11.0625 6.4375 C12.08472656 7.21996094 13.10695313 8.00242187 14.16015625 8.80859375 C15.56587891 9.89333984 15.56587891 9.89333984 17 11 C18.33148848 12.00245509 19.66398023 13.00359197 21 14 C17.46272411 14.4494881 16.10332946 14.06476761 13.02734375 12.13671875 C12.00769531 11.32847656 10.98804687 10.52023437 9.9375 9.6875 C8.91527344 8.88699219 7.89304687 8.08648437 6.83984375 7.26171875 C5.90269531 6.51535156 4.96554688 5.76898438 4 5 C2.82630859 4.17435547 2.82630859 4.17435547 1.62890625 3.33203125 C1.09136719 2.89246094 0.55382812 2.45289063 0 2 C0 1.34 0 0.68 0 0 Z " transform="translate(97,374)" style="fill: #090A0A;"/><path d="M0 0 C0.33 0 0.66 0 1 0 C1.06058594 1.26457031 1.12117188 2.52914063 1.18359375 3.83203125 C1.26800904 5.49219871 1.35265655 7.15235437 1.4375 8.8125 C1.47681641 9.64587891 1.51613281 10.47925781 1.55664062 11.33789062 C1.59853516 12.14033203 1.64042969 12.94277344 1.68359375 13.76953125 C1.72025146 14.50792236 1.75690918 15.24631348 1.79467773 16.00708008 C1.94842141 18.207495 1.94842141 18.207495 3 21 C2.0625 23.1875 2.0625 23.1875 1 25 C-1.23259867 18.16266657 -3.33778436 6.67556872 0 0 Z " transform="translate(119,286)" style="fill: #030303;"/><path d="M0 0 C3.70203656 5.55305485 2.25638675 12.31614367 1 18.625 C0.676436 20.08553194 0.34677029 21.54480325 0 23 C-0.33 23 -0.66 23 -1 23 C-1.19456705 21.04235617 -1.38044247 19.08384679 -1.5625 17.125 C-1.71912109 15.48917969 -1.71912109 15.48917969 -1.87890625 13.8203125 C-2 11 -2 11 -1 9 C-0.77532169 7.46331135 -0.59203195 5.92031946 -0.4375 4.375 C-0.35371094 3.55773437 -0.26992188 2.74046875 -0.18359375 1.8984375 C-0.12300781 1.27195312 -0.06242187 0.64546875 0 0 Z " transform="translate(380,287)" style="fill: #070707;"/><path d="M0 0 C3.29525123 2.95727675 5.01116032 5.69270742 6.75 9.75 C7.17796875 10.73484375 7.6059375 11.7196875 8.046875 12.734375 C8.51867187 13.85585938 8.51867187 13.85585938 9 15 C7.1015625 14.65625 7.1015625 14.65625 5 14 C3.375 11.5 3.375 11.5 2 9 C1.34 8.67 0.68 8.34 0 8 C0 5.36 0 2.72 0 0 Z " transform="translate(42,285)" style="fill: #090909;"/><path d="M0 0 C0.25523438 1.01320312 0.25523438 1.01320312 0.515625 2.046875 C2.30038593 8.88111967 2.30038593 8.88111967 7 14 C6.67 14.99 6.34 15.98 6 17 C4.84775972 16.07038578 3.70340824 15.1309875 2.5625 14.1875 C1.92441406 13.66542969 1.28632812 13.14335937 0.62890625 12.60546875 C-1.97101376 10.04295766 -2.00112365 7.96741411 -2.125 4.375 C-1.96296296 0 -1.96296296 0 0 0 Z " transform="translate(83,239)" style="fill: #090909;"/><path d="M0 0 C0.99 0.33 1.98 0.66 3 1 C4.06309567 6.17317421 4.11693938 11.12369336 4.0625 16.375 C4.05798828 17.20644531 4.05347656 18.03789062 4.04882812 18.89453125 C4.03713164 20.92971897 4.01919935 22.96486923 4 25 C3.67 25 3.34 25 3 25 C2.67 21.37 2.34 17.74 2 14 C1.67 14 1.34 14 1 14 C0.67 9.38 0.34 4.76 0 0 Z " transform="translate(357,275)" style="fill: #161616;"/><path d="M0 0 C0.33 0.99 0.66 1.98 1 3 C0.01 3.66 -0.98 4.32 -2 5 C-3.02408904 8.07226713 -3.00395483 9.97758932 -2.4375 13.1875 C-2.293125 14.115625 -2.14875 15.04375 -2 16 C-2.66 16.66 -3.32 17.32 -4 18 C-5.57845871 13.85654589 -6.66021929 10.43290093 -6 6 C-3.5625 3.1875 -3.5625 3.1875 -1 1 C-0.67 0.67 -0.34 0.34 0 0 Z " transform="translate(292,203)" style="fill: #090909;"/><path d="M0 0 C2 1 2 1 2.625 2.5625 C3.48861271 8.17598262 3.56176277 12.87647447 1 18 C0.67 18 0.34 18 0 18 C0 12.06 0 6.12 0 0 Z " transform="translate(442,180)" style="fill: #0A0909;"/><path d="M0 0 C5.94 1.98 11.88 3.96 18 6 C18 6.33 18 6.66 18 7 C11.09647445 7.51137226 6.25172386 5.86964374 0 3 C0 2.01 0 1.02 0 0 Z " transform="translate(290,397)" style="fill: #090908;"/><path d="M0 0 C0.66 0 1.32 0 2 0 C3.47265625 2.1171875 3.47265625 2.1171875 5.0625 4.875 C5.58972656 5.77992188 6.11695313 6.68484375 6.66015625 7.6171875 C7.47185168 9.06072748 8.25937093 10.51874185 9 12 C8.34 12.66 7.68 13.32 7 14 C6.401875 13.030625 5.80375 12.06125 5.1875 11.0625 C3.28872491 7.76947958 3.28872491 7.76947958 0 7 C0.33 5.68 0.66 4.36 1 3 C0.34 2.67 -0.32 2.34 -1 2 C-0.67 1.34 -0.34 0.68 0 0 Z " transform="translate(309,219)" style="fill: #0A0909;"/><path d="M0 0 C6.6 0 13.2 0 20 0 C16.41992575 3.58007425 10.87055176 2.96829068 6 3 C2.25 2.0625 2.25 2.0625 0 1 C0 0.67 0 0.34 0 0 Z " transform="translate(312,404)" style="fill: #050405;"/><path d="M0 0 C3.61621957 1.20540652 4.06985695 2.2255028 6.0625 5.375 C6.56910156 6.16648437 7.07570313 6.95796875 7.59765625 7.7734375 C8.06042969 8.50820313 8.52320312 9.24296875 9 10 C9.99 11.485 9.99 11.485 11 13 C10.01 13 9.02 13 8 13 C6.2109375 11.171875 6.2109375 11.171875 4.375 8.75 C3.76398438 7.96109375 3.15296875 7.1721875 2.5234375 6.359375 C1.09983007 4.15460862 0.43474299 2.56145868 0 0 Z " transform="translate(81,354)" style="fill: #090A09;"/><path d="M0 0 C0.33 0.99 0.66 1.98 1 3 C-1.0958142 4.05837122 -3.20198042 5.09626587 -5.3125 6.125 C-6.48425781 6.70507812 -7.65601563 7.28515625 -8.86328125 7.8828125 C-9.89839844 8.25148438 -10.93351563 8.62015625 -12 9 C-12.99 8.34 -13.98 7.68 -15 7 C-10.05 4.69 -5.1 2.38 0 0 Z " transform="translate(212,395)" style="fill: #0A0909;"/><path d="M0 0 C-2.53229508 2.53229508 -3.85827668 2.42944077 -7.375 2.75 C-8.80972656 2.89695313 -8.80972656 2.89695313 -10.2734375 3.046875 C-13.12873561 2.99778678 -14.59645051 2.48085988 -17 1 C-17 0.67 -17 0.34 -17 0 C-14.9174133 -0.19561869 -12.83388144 -0.38119313 -10.75 -0.5625 C-9.58984375 -0.66691406 -8.4296875 -0.77132812 -7.234375 -0.87890625 C-4.48128523 -0.98198087 -2.580018 -0.86213473 0 0 Z " transform="translate(150,250)" style="fill: #080808;"/><path d="M0 0 C0.33 5.61 0.66 11.22 1 17 C0.01 17.33 -0.98 17.66 -2 18 C-2.77034555 12.10981941 -3.24237456 6.83916045 -2 1 C-1 0 -1 0 0 0 Z " transform="translate(58,185)" style="fill: #040405;"/><path d="M0 0 C0 3 0 3 -2.1875 5.48046875 C-3.115625 6.37378906 -4.04375 7.26710937 -5 8.1875 C-5.928125 9.08855469 -6.85625 9.98960937 -7.8125 10.91796875 C-8.534375 11.60503906 -9.25625 12.29210937 -10 13 C-10.66 12.67 -11.32 12.34 -12 12 C-8.27653164 7.57905197 -4.70478962 3.42166518 0 0 Z " transform="translate(202,239)" style="fill: #060606;"/><path d="M0 0 C0.66 0 1.32 0 2 0 C0.58192622 4.47238653 -1.11304374 8.71146306 -3 13 C-3.66 13 -4.32 13 -5 13 C-4.48474397 7.71862571 -2.74522883 4.42778844 0 0 Z " transform="translate(65,154)" style="fill: #090909;"/><path d="M0 0 C-0.75 7.625 -0.75 7.625 -3 11 C-3 8.36 -3 5.72 -3 3 C-3.66 3 -4.32 3 -5 3 C-5 2.34 -5 1.68 -5 1 C-5.66 0.67 -6.32 0.34 -7 0 C-4.3333581 -1.33332095 -2.83319697 -0.67102033 0 0 Z " transform="translate(125,267)" style="fill: #171617;"/><path d="M0 0 C5.23175837 -0.38281159 8.37802694 0.78145293 13 3 C12.01 4.485 12.01 4.485 11 6 C7.37 4.35 3.74 2.7 0 1 C0 0.67 0 0.34 0 0 Z " transform="translate(385,118)" style="fill: #090909;"/><path d="M0 0 C2.30143236 3.45214853 2.13833854 4.23479324 1.625 8.1875 C1.51414062 9.08855469 1.40328125 9.98960937 1.2890625 10.91796875 C1.19367188 11.60503906 1.09828125 12.29210937 1 13 C0.01 12.34 -0.98 11.68 -2 11 C-2.39259107 6.76001646 -2.32490278 3.63266059 0 0 Z " transform="translate(353,319)" style="fill: #090909;"/><path d="M0 0 C0 0.33 0 0.66 0 1 C-4.95 1 -9.9 1 -15 1 C-14.67 0.34 -14.34 -0.32 -14 -1 C-8.58663118 -2.29920852 -5.10852714 -1.77234615 0 0 Z " transform="translate(310,67)" style="fill: #010101;"/><path d="M0 0 C0.66 0 1.32 0 2 0 C1.88570603 1.77155654 1.75816963 3.54226229 1.625 5.3125 C1.52058594 6.79169922 1.52058594 6.79169922 1.4140625 8.30078125 C1 11 1 11 -1 14 C-1.02705729 12.22925083 -1.04642195 10.45838289 -1.0625 8.6875 C-1.07410156 7.70136719 -1.08570313 6.71523437 -1.09765625 5.69921875 C-1 3 -1 3 0 0 Z " transform="translate(38,230)" style="fill: #070807;"/><path d="M0 0 C0.33 0.66 0.66 1.32 1 2 C2.65 2 4.3 2 6 2 C5.67 2.66 5.34 3.32 5 4 C3.02 4 1.04 4 -1 4 C-1 4.99 -1 5.98 -1 7 C-1.99 7 -2.98 7 -4 7 C-3.67 5.35 -3.34 3.7 -3 2 C-2.01 2 -1.02 2 0 2 C0 1.34 0 0.68 0 0 Z " transform="translate(145,267)" style="fill: #0A0A09;"/><path d="M0 0 C3.01657791 0.14030595 5.23841273 0.29351465 7.51171875 2.40234375 C8.73256066 3.88904235 9.87246522 5.44134898 11 7 C6.96479403 5.41037341 2.98188718 3.71767682 -1 2 C-0.67 1.34 -0.34 0.68 0 0 Z " transform="translate(296,202)" style="fill: #090A0A;"/><path d="M0 0 C1.32 0.33 2.64 0.66 4 1 C1.03 3.64 -1.94 6.28 -5 9 C-5.66 8.34 -6.32 7.68 -7 7 C-5.93283928 5.79794536 -4.84561663 4.61367667 -3.75 3.4375 C-3.14671875 2.77621094 -2.5434375 2.11492187 -1.921875 1.43359375 C-1.28765625 0.96050781 -0.6534375 0.48742187 0 0 Z " transform="translate(142,86)" style="fill: #0A0A0A;"/><path d="M0 0 C-1.43294498 0.84114171 -2.87154405 1.67265687 -4.3125 2.5 C-5.51326172 3.19609375 -5.51326172 3.19609375 -6.73828125 3.90625 C-9 5 -9 5 -12 5 C-12 4.34 -12 3.68 -12 3 C-10.75823305 2.29773859 -9.50614401 1.61370891 -8.25 0.9375 C-7.20585937 0.36322266 -7.20585937 0.36322266 -6.140625 -0.22265625 C-3.63859372 -1.1312406 -2.4667645 -0.88336837 0 0 Z " transform="translate(184,258)" style="fill: #090909;"/><path d="M0 0 C3.43132304 0.98037801 4.79850847 2.17562548 7.0625 4.875 C6.4025 5.535 5.7425 6.195 5.0625 6.875 C5.0625 6.215 5.0625 5.555 5.0625 4.875 C1.52838679 2.75453208 -1.88143835 2.34300711 -5.9375 1.875 C-2.9375 -0.125 -2.9375 -0.125 0 0 Z " transform="translate(410.9375,232.125)" style="fill: #080807;"/><path d="M0 0 C-1.70828921 2.10633718 -2.52148416 2.93801608 -5.26171875 3.29296875 C-6.06222656 3.25816406 -6.86273438 3.22335937 -7.6875 3.1875 C-8.89986328 3.14689453 -8.89986328 3.14689453 -10.13671875 3.10546875 C-11.05904297 3.05326172 -11.05904297 3.05326172 -12 3 C-11.67 2.34 -11.34 1.68 -11 1 C-7.29882394 0.15882362 -3.78728969 -0.11139087 0 0 Z " transform="translate(194,403)" style="fill: #090909;"/><path d="M0 0 C0.66 0 1.32 0 2 0 C3.13643966 3.40931897 2.86747764 4.00335456 1.5625 7.1875 C1.27503906 7.90292969 0.98757812 8.61835938 0.69140625 9.35546875 C0.34916016 10.16951172 0.34916016 10.16951172 0 11 C-0.99 10.67 -1.98 10.34 -3 10 C-2.01 6.7 -1.02 3.4 0 0 Z " transform="translate(237,361)" style="fill: #080808;"/><path d="M0 0 C0.33 0.66 0.66 1.32 1 2 C0.22265625 3.7265625 0.22265625 3.7265625 -0.9375 5.625 C-1.618125 6.73875 -2.29875 7.8525 -3 9 C-3.99 9 -4.98 9 -6 9 C-4.68775452 5.06326356 -3.08089673 2.77280706 0 0 Z " transform="translate(208,229)" style="fill: #090909;"/><path d="M0 0 C0 4.24645065 -1.81750806 6.38524772 -4 10 C-4.66 10 -5.32 10 -6 10 C-5.58578031 5.16743695 -3.53586014 3.17320782 0 0 Z " transform="translate(49,210)" style="fill: #080808;"/><path d="M0 0 C3.96 0 7.92 0 12 0 C11 2 11 2 8.8125 2.75 C5.41560571 3.05194616 3.14413009 2.24302818 0 1 C0 0.67 0 0.34 0 0 Z " transform="translate(168,404)" style="fill: #050605;"/><path d="M0 0 C2.12046792 3.53411321 2.53199289 6.94393835 3 11 C0 9 0 9 -0.546875 7.08984375 C-0.7381288 5.06328901 -0.87101785 3.03146886 -1 1 C-0.67 0.67 -0.34 0.34 0 0 Z " transform="translate(143,308)" style="fill: #070606;"/><path d="M0 0 C1.45945288 0.08708669 2.91765868 0.19526907 4.375 0.3125 C5.59316406 0.39951172 5.59316406 0.39951172 6.8359375 0.48828125 C9 1 9 1 11 4 C7.0507432 3.44894091 3.65079826 2.61064629 0 1 C0 0.67 0 0.34 0 0 Z " transform="translate(320,69)" style="fill: #080808;"/><path d="M0 0 C2.64 0 5.28 0 8 0 C8.33 1.98 8.66 3.96 9 6 C8.34 6 7.68 6 7 6 C6.67 5.01 6.34 4.02 6 3 C2.99152582 1.77479736 2.99152582 1.77479736 0 1 C0 0.67 0 0.34 0 0 Z " transform="translate(350,269)" style="fill: #0A090A;"/><path d="M0 0 C0.66 0 1.32 0 2 0 C3.20272819 2.40545638 3.10071472 3.94996953 3.0625 6.625 C3.05347656 7.44226563 3.04445313 8.25953125 3.03515625 9.1015625 C3.02355469 9.72804687 3.01195312 10.35453125 3 11 C0.60236815 8.60236815 0.65719414 7.66726502 0.375 4.375 C0.30023438 3.55773437 0.22546875 2.74046875 0.1484375 1.8984375 C0.09945313 1.27195313 0.05046875 0.64546875 0 0 Z " transform="translate(460,231)" style="fill: #070707;"/><path d="M0 0 C0.99 0.495 0.99 0.495 2 1 C2.4140625 3.06640625 2.4140625 3.06640625 2.625 5.5625 C2.69976562 6.38878906 2.77453125 7.21507812 2.8515625 8.06640625 C2.92503906 9.02353516 2.92503906 9.02353516 3 10 C2.34 10 1.68 10 1 10 C-0.60725635 6.78548731 -0.05748185 3.56387464 0 0 Z " transform="translate(71,323)" style="fill: #080808;"/><path d="M0 0 C3 1 3 1 4.75 3.875 C6 7 6 7 5 10 C4.16121545 8.71186658 3.32913217 7.41936744 2.5 6.125 C2.0359375 5.40570313 1.571875 4.68640625 1.09375 3.9453125 C0 2 0 2 0 0 Z " transform="translate(289,224)" style="fill: #090808;"/><path d="M0 0 C0.80050781 0.12761719 1.60101563 0.25523437 2.42578125 0.38671875 C3.23402344 0.50660156 4.04226563 0.62648438 4.875 0.75 C5.48988281 0.85699219 6.10476563 0.96398437 6.73828125 1.07421875 C6.73828125 1.40421875 6.73828125 1.73421875 6.73828125 2.07421875 C0.79828125 2.56921875 0.79828125 2.56921875 -5.26171875 3.07421875 C-2.26171875 0.07421875 -2.26171875 0.07421875 0 0 Z " transform="translate(335.26171875,402.92578125)" style="fill: #161616;"/><path d="M0 0 C-0.33 0.99 -0.66 1.98 -1 3 C-4.3 2.67 -7.6 2.34 -11 2 C-11 1.67 -11 1.34 -11 1 C-7.26562152 0.12132271 -3.83225427 -0.08912219 0 0 Z " transform="translate(170,403)" style="fill: #181818;"/><path d="M0 0 C0.99 0.33 1.98 0.66 3 1 C0.64722731 3.72426311 -1.62496331 4.8141763 -5 6 C-3.63016497 2.83884224 -3.0109362 2.0072908 0 0 Z " transform="translate(152,79)" style="fill: #070708;"/><path d="M0 0 C1.32 0.33 2.64 0.66 4 1 C3.01 1.33 2.02 1.66 1 2 C0.67 1.34 0.34 0.68 0 0 Z " transform="translate(313,407)" style="fill: #000000;"/><path d="M0 0 C0.66 0 1.32 0 2 0 C1.67 1.32 1.34 2.64 1 4 C0.67 2.68 0.34 1.36 0 0 Z " transform="translate(35,274)" style="fill: #000000;"/><path d="M0 0 C4 1 4 1 4 1 Z " transform="translate(169,407)" style="fill: #001500;"/><path d="M0 0 C3 1 3 1 3 1 Z " transform="translate(63,321)" style="fill: #000000;"/><path d="M0 0 C3 1 3 1 3 1 Z " transform="translate(159,249)" style="fill: #000000;"/><path d="M0 0 C0.66 0.66 1.32 1.32 2 2 C1.34 2 0.68 2 0 2 C0 1.34 0 0.68 0 0 Z " transform="translate(301,207)" style="fill: #151515;"/><path d="M0 0 C3 1 3 1 3 1 Z " transform="translate(203,206)" style="fill: #000000;"/><path d="M0 0 C2 1 2 1 2 1 Z " transform="translate(319,409)" style="fill: #000000;"/><path d="M0 0 C2 1 2 1 2 1 Z " transform="translate(322,408)" style="fill: #000000;"/><path d="M0 0 C2 1 2 1 2 1 Z " transform="translate(178,408)" style="fill: #000000;"/><path d="M0 0 C2 1 2 1 2 1 Z " transform="translate(324,407)" style="fill: #000000;"/><path d="M0 0 C2 1 2 1 2 1 Z " transform="translate(345,405)" style="fill: #000000;"/><path d="" transform="translate(0,0)" style="fill: #000000;"/><path d="" transform="translate(0,0)" style="fill: #191919;"/><path d="" transform="translate(0,0)" style="fill: #000000;"/><path d="M0 0 C2 1 2 1 2 1 Z " transform="translate(138,333)" style="fill: #000000;"/><path d="" transform="translate(0,0)" style="fill: #000000;"/><path d="" transform="translate(0,0)" style="fill: #000000;"/><path d="M0 0 C2 1 2 1 2 1 Z " transform="translate(378,266)" style="fill: #000000;"/><path d="M0 0 C2 1 2 1 2 1 Z " transform="translate(352,266)" style="fill: #000000;"/><path d="M0 0 C2 1 2 1 2 1 Z " transform="translate(349,266)" style="fill: #000000;"/><path d="M0 0 C2 1 2 1 2 1 Z " transform="translate(131,253)" style="fill: #000000;"/><path d="M0 0 C2 1 2 1 2 1 Z " transform="translate(186,250)" style="fill: #000000;"/><path d="" transform="translate(0,0)" style="fill: #000000;"/><path d="" transform="translate(0,0)" style="fill: #000000;"/><path d="" transform="translate(0,0)" style="fill: #2A0000;"/><path d="M0 0 C2 1 2 1 2 1 Z " transform="translate(392,117)" style="fill: #000000;"/><path d="M0 0 C2 1 2 1 2 1 Z " transform="translate(212,66)" style="fill: #000000;"/><path d="M0 0 C2 1 2 1 2 1 Z " transform="translate(178,66)" style="fill: #202020;"/><path d="" transform="translate(0,0)" style="fill: #000000;"/><path d="" transform="translate(0,0)" style="fill: #000000;"/><path d="" transform="translate(0,0)" style="fill: #000000;"/><path d="" transform="translate(0,0)" style="fill: #000000;"/><path d="" transform="translate(0,0)" style="fill: #000000;"/><path d="" transform="translate(0,0)" style="fill: #000000;"/><path d="" transform="translate(0,0)" style="fill: #000000;"/><path d="" transform="translate(0,0)" style="fill: #000000;"/><path d="" transform="translate(0,0)" style="fill: #000000;"/><path d="" transform="translate(0,0)" style="fill: #000000;"/><path d="" transform="translate(0,0)" style="fill: #000000;"/><path d="" transform="translate(0,0)" style="fill: #000000;"/><path d="" transform="translate(0,0)" style="fill: #000000;"/><path d="" transform="translate(0,0)" style="fill: #000000;"/><path d="" transform="translate(0,0)" style="fill: #000000;"/><path d="" transform="translate(0,0)" style="fill: #000000;"/><path d="" transform="translate(0,0)" style="fill: #000000;"/><path d="" transform="translate(0,0)" style="fill: #000000;"/><path d="" transform="translate(0,0)" style="fill: #000000;"/><path d="" transform="translate(0,0)" style="fill: #000000;"/><path d="" transform="translate(0,0)" style="fill: #000000;"/><path d="" transform="translate(0,0)" style="fill: #000000;"/><path d="" transform="translate(0,0)" style="fill: #000000;"/><path d="" transform="translate(0,0)" style="fill: #000000;"/><path d="" transform="translate(0,0)" style="fill: #000000;"/><path d="" transform="translate(0,0)" style="fill: #000000;"/><path d="" transform="translate(0,0)" style="fill: #000000;"/><path d="" transform="translate(0,0)" style="fill: #000000;"/><path d="" transform="translate(0,0)" style="fill: #000000;"/><path d="" transform="translate(0,0)" style="fill: #000000;"/><path d="" transform="translate(0,0)" style="fill: #000000;"/><path d="" transform="translate(0,0)" style="fill: #000000;"/><path d="" transform="translate(0,0)" style="fill: #000000;"/><path d="" transform="translate(0,0)" style="fill: #000000;"/><path d="" transform="translate(0,0)" style="fill: #000000;"/><path d="" transform="translate(0,0)" style="fill: #000000;"/><path d="" transform="translate(0,0)" style="fill: #000000;"/><path d="" transform="translate(0,0)" style="fill: #000000;"/><path d="" transform="translate(0,0)" style="fill: #000000;"/><path d="" transform="translate(0,0)" style="fill: #000000;"/><path d="" transform="translate(0,0)" style="fill: #000000;"/><path d="" transform="translate(0,0)" style="fill: #000000;"/><path d="" transform="translate(0,0)" style="fill: #000000;"/><path d="" transform="translate(0,0)" style="fill: #000000;"/><path d="" transform="translate(0,0)" style="fill: #000000;"/><path d="" transform="translate(0,0)" style="fill: #000000;"/><path d="" transform="translate(0,0)" style="fill: #000000;"/><path d="" transform="translate(0,0)" style="fill: #000000;"/><path d="" transform="translate(0,0)" style="fill: #000000;"/><path d="" transform="translate(0,0)" style="fill: #000000;"/><path d="" transform="translate(0,0)" style="fill: #000000;"/><path d="" transform="translate(0,0)" style="fill: #000000;"/><path d="" transform="translate(0,0)" style="fill: #000000;"/><path d="" transform="translate(0,0)" style="fill: #000000;"/><path d="" transform="translate(0,0)" style="fill: #000000;"/><path d="" transform="translate(0,0)" style="fill: #000000;"/><path d="" transform="translate(0,0)" style="fill: #000000;"/><path d="" transform="translate(0,0)" style="fill: #000000;"/><path d="" transform="translate(0,0)" style="fill: #000000;"/><path d="" transform="translate(0,0)" style="fill: #000000;"/><path d="" transform="translate(0,0)" style="fill: #000000;"/><path d="" transform="translate(0,0)" style="fill: #000000;"/><path d="" transform="translate(0,0)" style="fill: #404040;"/><path d="" transform="translate(0,0)" style="fill: #000000;"/><path d="" transform="translate(0,0)" style="fill: #000000;"/><path d="" transform="translate(0,0)" style="fill: #000000;"/><path d="" transform="translate(0,0)" style="fill: #000000;"/><path d="" transform="translate(0,0)" style="fill: #000000;"/><path d="" transform="translate(0,0)" style="fill: #000000;"/><path d="" transform="translate(0,0)" style="fill: #000000;"/><path d="" transform="translate(0,0)" style="fill: #000000;"/><path d="" transform="translate(0,0)" style="fill: #000000;"/><path d="" transform="translate(0,0)" style="fill: #000000;"/><path d="" transform="translate(0,0)" style="fill: #000000;"/><path d="" transform="translate(0,0)" style="fill: #000000;"/><path d="" transform="translate(0,0)" style="fill: #000000;"/><path d="" transform="translate(0,0)" style="fill: #404040;"/><path d="" transform="translate(0,0)" style="fill: #000000;"/><path d="" transform="translate(0,0)" style="fill: #000000;"/><path d="" transform="translate(0,0)" style="fill: #000000;"/><path d="" transform="translate(0,0)" style="fill: #000000;"/><path d="" transform="translate(0,0)" style="fill: #000000;"/><path d="" transform="translate(0,0)" style="fill: #000000;"/><path d="" transform="translate(0,0)" style="fill: #000000;"/><path d="" transform="translate(0,0)" style="fill: #000000;"/><path d="" transform="translate(0,0)" style="fill: #000000;"/><path d="" transform="translate(0,0)" style="fill: #333333;"/><path d="" transform="translate(0,0)" style="fill: #000000;"/><path d="" transform="translate(0,0)" style="fill: #000000;"/><path d="" transform="translate(0,0)" style="fill: #000000;"/><path d="" transform="translate(0,0)" style="fill: #000000;"/><path d="" transform="translate(0,0)" style="fill: #000000;"/><path d="" transform="translate(0,0)" style="fill: #000000;"/><path d="" transform="translate(0,0)" style="fill: #000000;"/><path d="" transform="translate(0,0)" style="fill: #000000;"/><path d="" transform="translate(0,0)" style="fill: #000000;"/><path d="" transform="translate(0,0)" style="fill: #000000;"/><path d="" transform="translate(0,0)" style="fill: #202020;"/><path d="" transform="translate(0,0)" style="fill: #000000;"/><path d="" transform="translate(0,0)" style="fill: #000000;"/><path d="" transform="translate(0,0)" style="fill: #000000;"/><path d="" transform="translate(0,0)" style="fill: #000000;"/><path d="" transform="translate(0,0)" style="fill: #000000;"/><path d="" transform="translate(0,0)" style="fill: #404040;"/><path d="" transform="translate(0,0)" style="fill: #000000;"/><path d="" transform="translate(0,0)" style="fill: #000000;"/><path d="" transform="translate(0,0)" style="fill: #000000;"/><path d="" transform="translate(0,0)" style="fill: #000000;"/><path d="" transform="translate(0,0)" style="fill: #000000;"/><path d="" transform="translate(0,0)" style="fill: #000000;"/><path d="" transform="translate(0,0)" style="fill: #000000;"/><path d="" transform="translate(0,0)" style="fill: #000000;"/><path d="" transform="translate(0,0)" style="fill: #000000;"/><path d="" transform="translate(0,0)" style="fill: #000000;"/><path d="" transform="translate(0,0)" style="fill: #000000;"/><path d="" transform="translate(0,0)" style="fill: #000000;"/><path d="" transform="translate(0,0)" style="fill: #000000;"/><path d="" transform="translate(0,0)" style="fill: #000000;"/><path d="" transform="translate(0,0)" style="fill: #555555;"/><path d="" transform="translate(0,0)" style="fill: #000000;"/><path d="" transform="translate(0,0)" style="fill: #000000;"/><path d="" transform="translate(0,0)" style="fill: #000000;"/><path d="" transform="translate(0,0)" style="fill: #000000;"/><path d="" transform="translate(0,0)" style="fill: #404040;"/><path d="" transform="translate(0,0)" style="fill: #404040;"/><path d="" transform="translate(0,0)" style="fill: #000000;"/><path d="" transform="translate(0,0)" style="fill: #000000;"/><path d="" transform="translate(0,0)" style="fill: #000000;"/><path d="" transform="translate(0,0)" style="fill: #000000;"/><path d="" transform="translate(0,0)" style="fill: #000000;"/><path d="" transform="translate(0,0)" style="fill: #000000;"/><path d="" transform="translate(0,0)" style="fill: #000000;"/><path d="" transform="translate(0,0)" style="fill: #000000;"/><path d="" transform="translate(0,0)" style="fill: #000000;"/><path d="" transform="translate(0,0)" style="fill: #000000;"/><path d="" transform="translate(0,0)" style="fill: #404040;"/><path d="" transform="translate(0,0)" style="fill: #000000;"/><path d="" transform="translate(0,0)" style="fill: #000000;"/><path d="" transform="translate(0,0)" style="fill: #000000;"/><path d="" transform="translate(0,0)" style="fill: #000000;"/><path d="" transform="translate(0,0)" style="fill: #000000;"/><path d="" transform="translate(0,0)" style="fill: #000000;"/><path d="" transform="translate(0,0)" style="fill: #000000;"/><path d="" transform="translate(0,0)" style="fill: #000000;"/></svg>